<?xml version="1.0" encoding="UTF-8" standalone="no"?>
<svg
   id="Layer_1"
   data-name="Layer 1"
   viewBox="0 0 100 100"
   version="1.1"
   sodipodi:docname="paper-icon.svg"
   xml:space="preserve"
   width="100"
   height="100"
   inkscape:export-filename="p.png"
   inkscape:export-xdpi="50.6791"
   inkscape:export-ydpi="50.6791"
   inkscape:version="1.2.1 (9c6d41e410, 2022-07-14)"
   xmlns:inkscape="http://www.inkscape.org/namespaces/inkscape"
   xmlns:sodipodi="http://sodipodi.sourceforge.net/DTD/sodipodi-0.dtd"
   xmlns="http://www.w3.org/2000/svg"
   xmlns:svg="http://www.w3.org/2000/svg"
   xmlns:rdf="http://www.w3.org/1999/02/22-rdf-syntax-ns#"
   xmlns:cc="http://creativecommons.org/ns#"
   xmlns:dc="http://purl.org/dc/elements/1.1/"><defs
     id="defs9"><style
       id="style1779">.cls-1{fill-rule:evenodd;}</style></defs><sodipodi:namedview
     id="namedview7"
     pagecolor="#ffffff"
     bordercolor="#666666"
     borderopacity="1.0"
     inkscape:showpageshadow="2"
     inkscape:pageopacity="0.0"
     inkscape:pagecheckerboard="0"
     inkscape:deskcolor="#d1d1d1"
     showgrid="false"
     inkscape:zoom="1.2041186"
     inkscape:cx="-205.95977"
     inkscape:cy="48.998494"
     inkscape:window-width="1920"
     inkscape:window-height="1017"
     inkscape:window-x="-8"
     inkscape:window-y="-8"
     inkscape:window-maximized="1"
     inkscape:current-layer="Layer_1" /><title
     id="title2">paper</title><path
     d="m -112.49866,87.258348 a 6.8126316,6.8126316 0 0 0 -2.14065,-2.808074 l -25.72847,-25.069181 a 2.8731887,2.8731887 0 0 0 -2.24646,-1.074394 h -44.92918 a 5.2254594,5.2254594 0 0 0 -5.2336,5.233599 v 89.532792 a 5.2254594,5.2254594 0 0 0 5.2336,5.2336 h 69.8193 a 5.2254594,5.2254594 0 0 0 5.20918,-5.2336 v -43.18736 0 -22.627382 z m -27.20983,-18.720492 17.48331,16.376361 h -17.48331 z m -12.57529,83.941054 h -34.64919 V 64.126331 h 41.36415 v 23.693632 a 2.9383035,2.9383035 0 0 0 2.9383,2.938304 h 24.28781 v 19.127463 0 42.59318 z m -23.832,-51.03368 a 2.099951,2.099951 0 0 1 1.52205,-0.71627 h 34.3399 a 2.0755329,2.0755329 0 0 1 1.55462,0.70813 2.4418035,2.4418035 0 0 1 0.61859,1.62787 2.5069182,2.5069182 0 0 1 -0.62673,1.62786 2.0918116,2.0918116 0 0 1 -1.54648,0.71627 h -34.31548 a 2.0836723,2.0836723 0 0 1 -1.55461,-0.70813 2.5231969,2.5231969 0 0 1 0,-3.32085 z m 0,33.1841 a 2.0592542,2.0592542 0 0 1 1.54647,-0.71626 h 43.85479 a 2.0755329,2.0755329 0 0 1 1.55462,0.71626 2.5231969,2.5231969 0 0 1 0,3.32086 2.1080903,2.1080903 0 0 1 -1.56276,0.69998 h -43.84665 a 2.1080903,2.1080903 0 0 1 -1.55461,-0.69998 2.5231969,2.5231969 0 0 1 0,-3.32086 z m 45.40126,-17.2961 a 2.1080903,2.1080903 0 0 1 1.55462,0.71626 2.5231969,2.5231969 0 0 1 0,3.32085 2.0918116,2.0918116 0 0 1 -1.56276,0.70813 h -43.84665 a 2.0836723,2.0836723 0 0 1 -1.55461,-0.70813 2.5231969,2.5231969 0 0 1 0,-3.32085 2.0918116,2.0918116 0 0 1 1.54647,-0.71626 z m -45.40126,-32.467849 a 2.0918116,2.0918116 0 0 1 1.54647,-0.716262 h 15.86359 a 2.0836723,2.0836723 0 0 1 1.55461,0.708123 2.4418035,2.4418035 0 0 1 0.61859,1.627869 2.4987789,2.4987789 0 0 1 -0.61045,1.627868 v 0 a 2.099951,2.099951 0 0 1 -1.54648,0.716263 h -15.87986 a 2.0836723,2.0836723 0 0 1 -1.55461,-0.708123 2.5231969,2.5231969 0 0 1 0,-3.320853 z"
     id="path4"
     style="stroke-width:0.813935" /><metadata
     id="metadata11"><rdf:RDF><cc:Work
         rdf:about=""><dc:title>paper</dc:title></cc:Work></rdf:RDF></metadata><path
     class="cls-1"
     d="m -170.71024,-35.052325 c 8.95183,-4.20736 16.42253,-4.13412 22.39584,-0.0814 l -52.89714,30.4769101 a 10.514323,10.514323 0 0 1 -5.87565,2.4414 c -1.9694,0.1058 -2.67741,-0.45573 -4.38639,-0.77311 a 5.8756511,5.8756511 0 0 0 -4.39453,0.8138 l -1.3916,1.26953002 c -1.24512,1.13119 -2.74252,2.11588998 -2.49837,4.06900998 0.16276,1.28581 1.26139,2.36817 3.00293,3.30404 a 12.532552,12.532552 0 0 1 3.07617,4.1829399 14.583334,14.583334 0 0 1 1.17187,5.28972 c -0.31738,6.1442 -3.1901,11.4502 -10.09928,15.46224 -7.87761,4.88281 -14.53451,4.28874 -20.49154,0.69987 -3.58887,-2.79134 -5.21647,-6.13607 -5.21647,-9.92839 0,-5.82682 2.77507,-10.49805 7.10449,-14.1438799 a 59.960938,59.960938 0 0 1 9.70866,-6.25 l 11.39323,-8.91113 0.20345,0.69173 z m 0,53.79232 c 8.95183,4.20735 16.42253,4.13411 22.39584,0.0814 l -43.71745,-25.1871799 -11.09212,6.25814002 z m -43.18847,-32.04753 a 6.0221355,6.0221355 0 0 1 -1.96126,-0.8138 l -1.3916,-1.26953 c -1.24512,-1.13119 -2.74252,-2.11589 -2.49838,-4.06901 0.16276,-1.29395 1.2614,-2.37631 3.00293,-3.30404 a 12.565104,12.565104 0 0 0 3.06804,-4.23177 14.534505,14.534505 0 0 0 1.17187,-5.24902 c -0.31738,-6.14421 -3.1901,-11.45834 -10.09928,-15.46224 -7.86133,-4.817709 -14.51823,-4.264329 -20.47526,-0.675459 -3.60515,2.758789 -5.23275,6.136069 -5.23275,9.903969 0,5.78613 2.77507,10.49805 7.10449,14.13574 a 59.407553,59.407553 0 0 0 9.70866,6.25 l 11.05143,8.6507201 0.48829,-0.28483 0.0488,-0.14649 0.0977,0.0651 z m -7.68229,-13.12663 c 3.18197,-2.07519 3.50749,-5.57454 2.33561,-8.91113 -0.93587,-2.67741 -2.94596,-4.98861 -5.95703,-6.90104 a 17.382813,17.382813 0 0 0 -10.1888,-2.62858 c -6.86849,0.62662 -8.13802,6.74642 -5.16765,12.0931 a 13.891602,13.891602 0 0 0 5.99773,5.63151 19.685873,19.685873 0 0 0 6.13606,1.99381 9.8958335,9.8958335 0 0 0 6.84408,-1.26953 z m 18.09082,18.4570301 a 2.9134115,2.9134115 0 1 1 -2.90528,-2.9134101 2.9052735,2.9052735 0 0 1 2.90528,2.9134101 z M -221.581,10.129965 c 3.18197,2.0752 3.50749,5.56641 2.33561,8.903 -0.93587,2.68554 -2.94596,4.9886 -5.95703,6.94173 a 17.447917,17.447917 0 0 1 -10.1888,2.57975 c -6.86849,-0.63476 -8.13802,-6.75456 -5.16765,-12.10124 a 13.834636,13.834636 0 0 1 5.99773,-5.62337 19.482422,19.482422 0 0 1 6.13606,-1.9938199 9.8958335,9.8958335 0 0 1 6.84408,1.2776699 z"
     id="path1785"
     style="stroke-width:0.813802"
     inkscape:export-filename="s.png"
     inkscape:export-xdpi="50.6791"
     inkscape:export-ydpi="50.6791" /><g
     id="g2156"
     transform="matrix(0.15326772,0,0,0.15326772,160.07798,46.864888)"
     inkscape:export-filename="r.png"
     inkscape:export-xdpi="50.6791"
     inkscape:export-ydpi="50.6791"><g
       id="g1904"
       transform="matrix(1.5625,0,0,1.5625,-1125.0113,-395.25584)"
       style="fill:#000000">
	<g
   id="g1902">
		<path
   d="m 467.239,190.447 c -6.052,-29.83 -26.124,-53.404 -58.047,-68.173 -36.368,-16.826 -87.362,-22.163 -151.562,-15.863 -99.424,9.757 -163.821,40.769 -191.4,92.172 -14.505,27.036 -18.34,59.932 -11.088,95.133 5.051,24.521 13.734,42.058 15.226,44.96 1.343,3.322 10.13,23.919 29.579,44.614 19.279,20.514 53.079,44.97 104.617,44.97 53.364,0 69.706,-17.935 88.628,-38.699 15.916,-17.466 33.956,-37.263 81.246,-52.022 28.063,-8.759 54.546,-29.913 72.66,-58.039 18.465,-28.671 25.806,-61.13 20.141,-89.053 z m -97.323,132.601 c -51.217,15.985 -71.58,38.332 -87.943,56.289 -17.85,19.589 -30.748,33.743 -77.407,33.743 -36.819,0 -68.164,-13.381 -93.166,-39.772 -18.922,-19.973 -26.961,-40.326 -27.04,-40.53 -0.106,-0.276 -0.233,-0.554 -0.371,-0.814 -0.358,-0.678 -35.447,-68.448 -4.328,-126.301 25.069,-46.609 85.446,-74.919 179.453,-84.143 111.324,-10.924 181.756,15.298 193.249,71.945 10.183,50.204 -29.884,113.178 -82.447,129.583 z"
   id="path1900" />
	</g>
</g><g
       id="g1910"
       transform="matrix(1.5625,0,0,1.5625,-1125.0113,-395.25584)"
       style="fill:#000000">
	<g
   id="g1908">
		<path
   d="m 439.461,142.046 c -2.764,-3.147 -7.559,-3.46 -10.709,-0.697 -0.268,0.235 -27.161,23.586 -57.622,30.753 -35.012,8.24 -61.035,41.836 -62.126,43.262 -2.544,3.327 -1.91,8.084 1.415,10.632 1.377,1.055 2.999,1.565 4.61,1.565 2.279,0 4.535,-1.022 6.03,-2.97 0.235,-0.307 23.885,-30.733 53.548,-37.712 34.228,-8.054 62.959,-33.066 64.165,-34.127 3.146,-2.767 3.452,-7.558 0.689,-10.706 z"
   id="path1906" />
	</g>
</g><g
       id="g1916"
       transform="matrix(1.5625,0,0,1.5625,-1125.0113,-395.25584)"
       style="fill:#000000">
	<g
   id="g1914">
		<path
   d="m 367.755,180.44 c -1.361,-3.072 -4.522,-4.795 -7.679,-4.483 -4.13,-0.218 -27.164,-3.604 -47.712,-6.855 -4.132,-0.655 -8.027,2.17 -8.683,6.31 -0.656,4.14 2.17,8.028 6.311,8.683 34.926,5.528 46.138,6.974 50.561,6.974 1.945,0 2.578,-0.28 3.337,-0.614 3.832,-1.699 5.563,-6.182 3.865,-10.015 z"
   id="path1912" />
	</g>
</g><g
       id="g1922"
       transform="matrix(1.5625,0,0,1.5625,-1125.0113,-395.25584)"
       style="fill:#000000">
	<g
   id="g1920">
		<path
   d="m 262.322,313.54 c -0.493,-4.162 -4.268,-7.138 -8.432,-6.642 -21.929,2.605 -38.092,8.994 -48.04,18.987 -7.386,7.419 -8.876,14.392 -9.173,16.671 -0.391,1.909 -4.117,17.676 -20.893,20.849 -26.442,5.002 -42.942,36.039 -43.633,37.357 -1.942,3.715 -0.506,8.302 3.209,10.244 1.123,0.587 2.326,0.865 3.511,0.865 2.734,0 5.377,-1.483 6.733,-4.075 3.748,-7.171 16.987,-26.446 33.002,-29.476 28.002,-5.297 32.869,-32.204 33.062,-33.347 0.056,-0.329 0.071,-0.285 0.078,-0.52 0.331,-1.514 4.824,-17.835 43.934,-22.481 4.164,-0.493 7.137,-4.269 6.642,-8.432 z"
   id="path1918" />
	</g>
</g><g
       id="g1928"
       transform="matrix(1.5625,0,0,1.5625,-1125.0113,-395.25584)"
       style="fill:#000000">
	<g
   id="g1926">
		<path
   d="m 233.637,378.051 c -1.18,-4.023 -5.397,-6.328 -9.419,-5.147 -29.607,8.682 -48.104,40.95 -48.877,42.319 -2.06,3.65 -0.771,8.28 2.879,10.341 1.179,0.665 2.46,0.982 3.724,0.982 2.649,0 5.222,-1.39 6.617,-3.861 0.159,-0.281 16.173,-28.248 39.929,-35.215 4.023,-1.179 6.327,-5.397 5.147,-9.419 z"
   id="path1924" />
	</g>
</g><g
       id="g1934"
       transform="matrix(1.5625,0,0,1.5625,-1125.0113,-395.25584)"
       style="fill:#000000">
	<g
   id="g1932">
		<path
   d="m 150.642,249.017 c -0.299,-4.182 -3.935,-7.329 -8.111,-7.03 -19.143,1.366 -21.371,-1.001 -32.088,-12.38 -2.106,-2.237 -4.493,-4.771 -7.309,-7.586 -19.509,-19.51 -34.375,-17.858 -36.007,-17.605 -4.142,0.642 -6.98,4.521 -6.338,8.663 0.643,4.142 4.521,6.978 8.663,6.338 0.082,-0.015 9.183,-0.43 22.949,13.337 2.654,2.654 4.959,5.101 6.992,7.259 10.923,11.597 17.303,17.438 35.916,17.438 2.527,0 5.283,-0.107 8.302,-0.323 4.183,-0.298 7.33,-3.929 7.031,-8.111 z"
   id="path1930" />
	</g>
</g><g
       id="g1940"
       transform="matrix(1.5625,0,0,1.5625,-1125.0113,-395.25584)"
       style="fill:#000000">
	<g
   id="g1938">
		<path
   d="m 213.459,169.167 c -5.201,-2.905 -13.86,-4.398 -25.583,4.985 -5.221,4.18 -9.747,8.388 -13.739,12.1 -14.668,13.638 -17.351,14.676 -23.914,9.252 -0.817,-0.675 -0.949,-1.014 -0.952,-1.004 -0.159,-1.876 4.489,-7.373 6.987,-10.328 5.469,-6.469 11.667,-13.801 10.799,-22.429 -0.474,-4.703 -2.939,-8.844 -7.327,-12.308 -22.596,-17.839 -51.346,2.914 -52.558,3.806 -3.377,2.484 -4.102,7.235 -1.617,10.612 2.484,3.376 7.235,4.101 10.611,1.616 0.204,-0.15 20.539,-14.868 34.156,-4.119 1.153,0.909 1.598,1.599 1.629,1.913 0.224,2.223 -4.478,7.784 -7.287,11.108 -5.529,6.539 -11.245,13.301 -10.515,21.482 0.389,4.343 2.542,8.162 6.402,11.352 17.651,14.588 31.006,2.173 43.92,-9.835 3.986,-3.706 8.107,-7.537 12.89,-11.366 3.829,-3.066 7.162,-4.443 8.693,-3.583 3.722,2.08 7.752,14.816 5.056,36.622 -0.514,4.16 2.441,7.95 6.601,8.464 0.317,0.039 0.63,0.059 0.941,0.059 3.776,-0.001 7.048,-2.816 7.524,-6.66 3.234,-26.144 -1.522,-45.485 -12.717,-51.739 z"
   id="path1936" />
	</g>
</g><g
       id="g1946"
       transform="matrix(1.5625,0,0,1.5625,-1125.0113,-395.25584)"
       style="fill:#000000">
	<g
   id="g1944">
		<path
   d="m 242.632,175.929 c -22.304,0.922 -29.949,23.132 -30.264,24.078 -1.324,3.977 0.828,8.275 4.805,9.599 0.796,0.265 1.604,0.391 2.398,0.391 3.179,0 6.142,-2.013 7.199,-5.196 0.044,-0.133 4.533,-13.211 16.488,-13.705 4.189,-0.173 7.443,-3.708 7.27,-7.897 -0.173,-4.189 -3.704,-7.459 -7.896,-7.27 z"
   id="path1942" />
	</g>
</g><g
       id="g1952"
       transform="matrix(1.5625,0,0,1.5625,-1125.0113,-395.25584)"
       style="fill:#000000">
	<g
   id="g1950">
		<path
   d="m 462.055,173.63 c -1.091,-2.567 -3.521,-4.344 -6.298,-4.603 -4.56,-0.419 -6.864,3.019 -7.619,4.15 -8.9,13.359 -25.979,22.531 -48.092,25.824 -45.571,6.786 -64.071,32.616 -64.836,33.712 -0.05,0.07 -0.097,0.141 -0.144,0.213 -6.965,10.731 -29.707,37.683 -51.027,33.61 -4.118,-0.785 -8.093,1.913 -8.879,6.03 -0.787,4.117 1.913,8.093 6.029,8.88 2.496,0.477 4.956,0.698 7.386,0.698 31.542,-0.005 56.932,-37.472 59.114,-40.785 1.226,-1.666 16.688,-21.698 54.593,-27.344 26.371,-3.927 47.12,-15.413 58.439,-32.347 1.903,-2.125 2.524,-5.239 1.334,-8.038 z"
   id="path1948" />
	</g>
</g><g
       id="g1958"
       transform="matrix(1.5625,0,0,1.5625,-1125.0113,-395.25584)"
       style="fill:#000000">
	<g
   id="g1956">
		<path
   d="m 395.086,202.192 c -3.475,-2.343 -8.194,-1.422 -10.535,2.053 -2.343,3.476 -1.424,8.194 2.053,10.536 0.428,0.288 10.427,7.223 5.57,21.144 -1.382,3.958 0.707,8.285 4.665,9.667 0.829,0.288 1.672,0.425 2.501,0.425 3.137,0 6.074,-1.962 7.166,-5.091 6.937,-19.879 -4.437,-34.029 -11.42,-38.734 z"
   id="path1954" />
	</g>
</g><g
       id="g1964"
       transform="matrix(1.5625,0,0,1.5625,-1125.0113,-395.25584)"
       style="fill:#000000">
	<g
   id="g1962">
		<path
   d="m 468.956,218.32 c -0.914,-4.091 -4.966,-6.666 -9.062,-5.753 -3.006,0.672 -73.924,16.751 -99.788,43.875 -2.892,3.034 -2.779,7.839 0.255,10.731 1.469,1.401 3.355,2.097 5.237,2.097 2.003,0 4.003,-0.788 5.493,-2.352 22.69,-23.795 91.42,-39.38 92.112,-39.535 4.091,-0.915 6.665,-4.973 5.753,-9.063 z"
   id="path1960" />
	</g>
</g><g
       id="g1970"
       transform="matrix(1.5625,0,0,1.5625,-1125.0113,-395.25584)"
       style="fill:#000000">
	<g
   id="g1968">
		<path
   d="m 162.236,326.13 c -2.693,-3.212 -7.48,-3.634 -10.693,-0.94 -12.451,10.438 -21.289,10.928 -21.376,10.931 l 0.156,-0.002 v 15.18 c 1.403,0 14.188,-0.406 30.972,-14.476 3.213,-2.693 3.634,-7.481 0.941,-10.693 z"
   id="path1966" />
	</g>
</g><g
       id="g1976"
       transform="matrix(1.5625,0,0,1.5625,-1125.0113,-395.25584)"
       style="fill:#000000">
	<g
   id="g1974">
		<path
   d="m 199.588,287.437 c -3.905,-1.523 -8.307,0.41 -9.829,4.315 -4.717,12.099 -17.675,19.209 -17.869,19.314 -3.689,1.967 -5.092,6.55 -3.135,10.248 1.362,2.573 3.993,4.04 6.715,4.04 1.197,0 2.414,-0.284 3.545,-0.883 0.735,-0.389 18.076,-9.728 24.888,-27.205 1.522,-3.906 -0.41,-8.307 -4.315,-9.829 z"
   id="path1972" />
	</g>
</g></g></svg>
